<?xml version="1.0" encoding="UTF-8"?>
<svg version="1.1" xmlns="http://www.w3.org/2000/svg" width="512" height="512">
<path d="M0 0 C2.1506369 1.79501978 3.98788431 3.69683522 5.859375 5.78125 C6.57738281 6.54179687 7.29539062 7.30234375 8.03515625 8.0859375 C11.92032234 12.28647977 15.58092707 16.6407153 19.171875 21.09375 C24.01736968 27.084852 29.24546851 32.67907419 34.49511719 38.3125 C36.38565638 40.34784069 38.256863 42.39873659 40.109375 44.46875 C40.65078125 45.07074219 41.1921875 45.67273438 41.75 46.29296875 C42.859375 47.78125 42.859375 47.78125 42.859375 49.78125 C48.13880441 45.62510345 52.16010625 41.08765728 56.33984375 35.83984375 C59.06456799 32.53215526 61.9278746 29.40435779 64.859375 26.28125 C69.39085518 21.44213855 73.6633486 16.46209311 77.82421875 11.296875 C79.75938774 8.9048427 81.72620881 6.54973205 83.734375 4.21875 C84.26804688 3.59871094 84.80171875 2.97867188 85.3515625 2.33984375 C87.40157591 0.22078844 89.1061687 -1.11610065 92.06640625 -1.51953125 C113.6918867 -1.61679728 132.65846421 7.08229838 148.234375 21.65625 C159.859375 33.93547078 159.859375 33.93547078 159.859375 39.78125 C161.179375 39.78125 162.499375 39.78125 163.859375 39.78125 C164.11332031 39.06710937 164.36726562 38.35296875 164.62890625 37.6171875 C171.80950632 21.06761401 188.05758199 9.49631158 204.31640625 3 C213.22561869 -0.0646905 224.42178249 -3.35662491 233.859375 -1.21875 C236.30859375 0.8984375 236.30859375 0.8984375 238.859375 3.78125 C239.86160881 4.83876449 240.86697221 5.8933194 241.875 6.9453125 C247.66829394 13.12334172 253.24318962 19.37332564 258.5390625 25.98828125 C261.75469524 29.85895029 265.1717365 33.52525376 268.60717773 37.20043945 C271.30568306 40.08878937 273.94434194 43.00059931 276.484375 46.03125 C278.56129808 48.79246795 278.56129808 48.79246795 280.859375 49.78125 C281.08496094 49.23597656 281.31054688 48.69070313 281.54296875 48.12890625 C283.25080582 45.08317901 285.52990162 42.7280209 287.921875 40.21875 C291.52986499 36.36555108 294.99530436 32.46768989 298.296875 28.34375 C302.64930704 22.93641971 307.31731529 17.87907271 312.05078125 12.80859375 C314.92685355 9.72440366 317.71086166 6.56755817 320.45703125 3.3671875 C321.15119141 2.58214844 321.15119141 2.58214844 321.859375 1.78125 C322.31699219 1.224375 322.77460938 0.6675 323.24609375 0.09375 C326.69853992 -2.71501976 331.67061012 -1.57736007 335.859375 -1.21875 C356.36362768 1.47622297 374.47902639 10.8851287 387.859375 26.78125 C403.18671884 46.87805566 405.05046292 68.22114682 405.09960938 92.65307617 C405.10940997 95.60428068 405.14055639 98.55481473 405.171875 101.50585938 C405.17839811 103.39582925 405.18365129 105.28580403 405.1875 107.17578125 C405.1998468 108.05087845 405.2121936 108.92597565 405.22491455 109.82759094 C405.20651181 114.8860898 404.70661484 118.41204523 401.859375 122.78125 C399.02162396 124.20012552 396.64299189 123.90395759 393.46871948 123.90150452 C392.80547515 123.90235894 392.14223082 123.90321337 391.45888817 123.90409368 C389.22630852 123.9057468 386.99380325 123.90022987 384.76123047 123.89477539 C383.16489667 123.89449346 381.56856273 123.89465137 379.972229 123.8952179 C375.62949944 123.89550563 371.28679732 123.8896128 366.94407415 123.88264394 C362.40901674 123.87640638 357.87395875 123.87580628 353.33889771 123.87461853 C344.74704455 123.8715064 336.15520408 123.86329461 327.56335652 123.85326904 C317.78357049 123.84210423 308.00378387 123.83659652 298.22399306 123.83157361 C278.10244663 123.8211119 257.98091161 123.80351474 237.859375 123.78125 C237.79602463 124.46623566 237.73267426 125.15122131 237.66740417 125.85696411 C237.581465 126.7563974 237.49552582 127.65583069 237.40698242 128.58251953 C237.28101936 129.91937302 237.28101936 129.91937302 237.1525116 131.28323364 C235.55656494 144.88338082 227.80775284 157.77256168 218.859375 167.78125 C218.13105469 168.61527344 217.40273438 169.44929687 216.65234375 170.30859375 C204.16540609 183.74810045 186.43810722 192.30742953 168.0234375 193.01953125 C146.48589703 193.45363027 128.58010829 189.04207422 111.859375 174.78125 C110.65087891 173.87052734 110.65087891 173.87052734 109.41796875 172.94140625 C96.98189143 162.44193944 87.9070864 144.73927675 85.859375 128.78125 C84.01640456 105.96390477 88.21959126 84.76447905 103.109375 66.84375 C113.92671566 54.48000255 128.18498553 46.3754676 143.859375 41.78125 C135.0005241 28.56499683 121.67538226 18.54466352 105.93823242 15.12597656 C99.31401971 13.84256783 99.31401971 13.84256783 93.18408203 15.92431641 C91.60577729 17.56210106 90.26626181 19.25937736 88.921875 21.09375 C87.89753543 22.38936836 86.87147024 23.68362414 85.84375 24.9765625 C85.09254883 25.94577637 85.09254883 25.94577637 84.32617188 26.93457031 C82.23068282 29.57276592 79.9709678 32.00543628 77.671875 34.46875 C74.48200656 37.94261309 71.43888606 41.48035025 68.484375 45.15625 C64.50412663 50.09602253 60.27925889 54.75154864 55.93212891 59.36669922 C53.88917639 61.54254875 51.93408913 63.67755796 50.1875 66.1015625 C48.859375 67.78125 48.859375 67.78125 45.984375 68.71875 C42.16678621 68.79510178 40.96286404 67.94810046 37.859375 65.78125 C36.21761383 64.1721066 34.63726912 62.49888261 33.109375 60.78125 C32.23539062 59.79898438 31.36140625 58.81671875 30.4609375 57.8046875 C27.31875188 54.15295827 24.29693667 50.41405617 21.2734375 46.6640625 C18.0872879 42.85924307 14.70940778 39.25512577 11.31665039 35.63525391 C7.2947669 31.31886621 3.55628951 26.84709956 -0.10546875 22.21875 C-4.26318496 16.82390548 -4.26318496 16.82390548 -10.203125 14.28125 C-26.08317923 16.29776482 -41.26819498 23.18318331 -51.58203125 35.7578125 C-68.47283307 58.44269201 -65.44395553 80.52113234 -66.140625 109.78125 C-24.890625 109.78125 16.359375 109.78125 58.859375 109.78125 C58.859375 114.40125 58.859375 119.02125 58.859375 123.78125 C41.32667386 123.87381571 23.79407019 123.94521281 6.26118088 123.98849869 C-1.87951217 124.00913061 -10.02005067 124.0372631 -18.16064453 124.08300781 C-25.25537142 124.12285647 -32.34998639 124.14867823 -39.44482207 124.15760398 C-43.20210735 124.16282214 -46.95907245 124.1750993 -50.71625519 124.20417023 C-54.90896351 124.23634835 -59.10111396 124.23721069 -63.29394531 124.23535156 C-64.54191391 124.24973267 -65.78988251 124.26411377 -67.07566833 124.27893066 C-68.21707779 124.27343201 -69.35848724 124.26793335 -70.53448486 124.26226807 C-72.02225874 124.26779882 -72.02225874 124.26779882 -73.54008865 124.27344131 C-76.88743477 123.63990482 -78.04823913 122.41786384 -80.140625 119.78125 C-81.46360315 115.81231556 -81.30319496 112.00165996 -81.30859375 107.86328125 C-81.31192215 106.97323898 -81.31525055 106.08319672 -81.31867981 105.16618347 C-81.32374825 103.27396154 -81.32608816 101.38173066 -81.32592773 99.48950195 C-81.32808251 96.64974246 -81.34614944 93.8103922 -81.36523438 90.97070312 C-81.44357551 66.03839612 -78.20959051 43.27266695 -61.140625 23.78125 C-60.57085937 23.11738281 -60.00109375 22.45351562 -59.4140625 21.76953125 C-47.92521163 9.3273502 -16.93076157 -9.6394117 0 0 Z M178.859375 40.78125 C178.859375 41.44125 178.859375 42.10125 178.859375 42.78125 C179.80296875 43.06097656 180.7465625 43.34070313 181.71875 43.62890625 C203.17553586 50.2266712 219.04546322 62.60436394 229.671875 82.59375 C233.85582727 91.33054129 235.96515489 100.31014944 237.859375 109.78125 C288.019375 109.78125 338.179375 109.78125 389.859375 109.78125 C391.4818549 65.40674859 391.4818549 65.40674859 370.859375 29.78125 C361.43772791 21.72525893 351.0251675 16.22870018 338.859375 13.78125 C338.07433594 13.59433594 337.28929687 13.40742188 336.48046875 13.21484375 C333.87564899 12.85696417 332.34121399 12.88242182 329.859375 13.78125 C326.85584244 16.59809132 324.54528559 19.81426853 322.12646484 23.13427734 C319.90002703 26.02821752 317.37041508 28.63511857 314.859375 31.28125 C310.42473168 36.00917329 306.28001465 40.88659508 302.22265625 45.9453125 C298.9629559 49.85695292 295.50827193 53.57195224 292.01953125 57.27929688 C289.79189143 59.65286497 287.67493039 62.0207626 285.6875 64.6015625 C283.859375 66.78125 283.859375 66.78125 280.921875 67.78125 C277.18741397 67.78125 275.88893456 66.91487274 272.859375 64.78125 C270.82421875 62.5390625 270.82421875 62.5390625 268.796875 59.90625 C265.31563855 55.5156057 261.69596773 51.36366144 257.859375 47.28125 C253.42966895 42.55354428 249.28398936 37.6826037 245.23046875 32.625 C241.91453582 28.64806561 238.3951063 24.87414508 234.84375 21.10742188 C232.62323256 18.74336175 230.66374549 16.48780574 228.859375 13.78125 C208.91805287 11.09684125 190.27552196 26.00252884 178.859375 40.78125 Z M113.859375 76.78125 C102.98693051 89.94738295 98.89338682 105.89503352 99.859375 122.78125 C101.77244633 139.40583984 109.47633733 153.68740529 121.859375 164.78125 C136.2534233 175.95829037 153.15974878 180.53409799 171.16796875 178.38671875 C187.5998741 175.49574789 201.74220229 167.23473072 211.9765625 154.0546875 C221.69376948 139.58313891 226.33634605 123.12870095 223.20703125 105.78515625 C219.59123603 88.53804123 210.38071257 74.60067364 196.109375 64.34375 C168.93985625 47.3184641 134.92914493 53.42128768 113.859375 76.78125 Z " fill="#FFFFFF" transform="translate(94.140625,229.21875)"/>
<path d="M0 0 C15.48335324 11.55447468 24.72079016 27.49828077 28.6875 46.25 C30.35441849 66.25302188 26.24771442 84.80889268 14 101 C-0.05742474 117.44538471 -17.44393311 124.82385269 -38.46484375 127.2890625 C-56.72985767 128.06032988 -75.87846889 119.93226553 -89.25390625 107.83984375 C-103.22716889 93.11633882 -110.74971319 74.94669493 -110.46826172 54.71899414 C-109.6537606 34.89591321 -101.23828129 18.54273307 -87 5 C-63.03450095 -16.91365838 -26.45737664 -17.90194588 0 0 Z M-83.9375 22.3125 C-93.30337829 34.9079915 -97.1812687 49.21232324 -95.53125 64.8125 C-93.04939796 79.70361223 -85.58293794 92.89666549 -73.43359375 101.90234375 C-59.95162716 110.97342511 -45.75122101 113.66652649 -29.7421875 111.57421875 C-14.56474015 108.27565353 -2.00654197 99.36998705 6.5 86.51171875 C14.2556212 73.52509262 16.08421548 58.98437887 13.27734375 44.19140625 C9.01053312 29.52532436 0.05008083 17.1719356 -13 9 C-37.31070564 -3.38594217 -66.08881048 1.00922541 -83.9375 22.3125 Z " fill="#FFFFFF" transform="translate(179,102)"/>
<path d="M0 0 C15.16091933 11.31177401 26.12220521 26.50225873 29.2890625 45.47265625 C31.34705365 66.4190593 27.41954039 85.34940577 14.26171875 102.25 C1.60782802 116.75101907 -16.20550207 125.82497749 -35.42578125 127.375 C-36.38097656 127.45427734 -36.38097656 127.45427734 -37.35546875 127.53515625 C-56.31765569 128.35804361 -73.8152381 120.51325919 -87.859375 108.25 C-100.89318944 95.94150744 -108.35187964 79.43869777 -109.7109375 61.640625 C-110.17684033 42.11321929 -103.98937673 25.25528684 -91.42578125 10.375 C-90.884375 9.72015625 -90.34296875 9.0653125 -89.78515625 8.390625 C-67.23557556 -16.43669111 -26.88724999 -18.01142672 0 0 Z M-79.42578125 18.375 C-84.18161854 24.27783334 -88.55077664 30.33332203 -91.42578125 37.375 C-91.72355469 38.03886719 -92.02132813 38.70273438 -92.328125 39.38671875 C-96.96590638 51.63302626 -95.73464406 66.88479541 -91.10546875 78.90234375 C-86.64071162 88.13296954 -80.79578175 96.29837964 -72.42578125 102.375 C-71.801875 102.83261719 -71.17796875 103.29023438 -70.53515625 103.76171875 C-58.2709273 112.06250786 -43.67446104 113.98390208 -29.203125 111.9140625 C-15.00258511 108.73344092 -2.13847842 101.14562277 6 88.90234375 C14.3121208 75.42437334 17.24802988 61.24697836 14.34765625 45.55859375 C10.86778211 31.2348694 2.61830341 19.20495934 -9.63671875 11.0234375 C-32.00215043 -2.19534705 -60.48239986 -0.56838139 -79.42578125 18.375 Z " fill="#FFFFFF" transform="translate(413.42578125,101.625)"/>
<path d="M0 0 C4.62 1.65 9.24 3.3 14 5 C8.73374685 19.30695396 3.06881961 33.44735507 -2.61035156 47.59454346 C-3.89908875 50.8059967 -5.18577497 54.01827147 -6.47265625 57.23046875 C-8.97981322 63.48776523 -11.48935858 69.74410079 -14 76 C-18.62 74.35 -23.24 72.7 -28 71 C-27.15650848 66.78254241 -26.10000024 63.43881941 -24.515625 59.48144531 C-24.26349243 58.84833939 -24.01135986 58.21523346 -23.75158691 57.5629425 C-22.92194326 55.48295551 -22.08612825 53.40551283 -21.25 51.328125 C-20.67059635 49.88047162 -20.0914992 48.43269553 -19.51269531 46.98480225 C-18.30152152 43.95769311 -17.08742361 40.93177923 -15.87109375 37.90673828 C-14.3093829 34.02236011 -12.75381571 30.13555782 -11.20025635 26.24791336 C-10.00642323 23.26179932 -8.80998095 20.2767365 -7.6126709 17.29201508 C-7.03785382 15.85849533 -6.46371561 14.42470317 -5.89025879 12.99063873 C-5.09086254 10.99304277 -4.28811532 8.9968279 -3.484375 7.00097656 C-3.02772461 5.86356018 -2.57107422 4.7261438 -2.10058594 3.55426025 C-1 1 -1 1 0 0 Z " fill="#FFFFFF" transform="translate(263,308)"/>
<path d="M0 0 C0.47703369 0.41137207 0.95406738 0.82274414 1.44555664 1.24658203 C2.38709595 2.05651611 2.38709595 2.05651611 3.34765625 2.8828125 C3.96906494 3.41793457 4.59047363 3.95305664 5.23071289 4.50439453 C7.09887382 6.08357955 9.01483128 7.57067852 11 9 C9.34136495 13.32504836 6.128959 16.09418825 2.875 19.25 C2.31167969 19.80429687 1.74835938 20.35859375 1.16796875 20.9296875 C-0.21686028 22.29104485 -1.60783204 23.64614859 -3 25 C1.15457839 30.91712679 5.77258334 36.01139933 11 41 C9.59155282 44.21524305 7.89655214 46.32183868 5.375 48.75 C4.74335938 49.36359375 4.11171875 49.9771875 3.4609375 50.609375 C2.73777344 51.29773438 2.73777344 51.29773438 2 52 C-3.32686708 47.5259909 -8.40627526 42.86806917 -13.375 38 C-14.09816406 37.31421875 -14.82132813 36.6284375 -15.56640625 35.921875 C-18.53438738 33.00400987 -20.69381559 30.78008768 -22.2265625 26.875 C-21.61922156 19.16805292 -13.93335636 13.70306943 -8.75 8.625 C-7.90953125 7.79355469 -7.0690625 6.96210938 -6.203125 6.10546875 C-4.13989498 4.06568453 -2.07212877 2.03073714 0 0 Z " fill="#FFFFFF" transform="translate(229,320)"/>
<path d="M0 0 C4.9841289 4.18436495 9.70917483 8.52661933 14.3125 13.125 C14.93189453 13.73214844 15.55128906 14.33929688 16.18945312 14.96484375 C16.78306641 15.55652344 17.37667969 16.14820313 17.98828125 16.7578125 C18.51977783 17.2852002 19.05127441 17.81258789 19.59887695 18.35595703 C21.13373356 20.15691963 22.10626748 21.81088812 23 24 C22.10017209 34.83126184 7.3404831 44.75153838 0 52 C-1.1055189 51.06409496 -2.20935453 50.12620142 -3.3125 49.1875 C-3.92738281 48.66542969 -4.54226563 48.14335937 -5.17578125 47.60546875 C-6.85424679 46.12827531 -8.43882034 44.59960869 -10 43 C-8.08596347 38.43735076 -4.72668951 35.66531544 -1.19140625 32.31640625 C0.98251882 30.01847833 2.48339319 27.76500341 4 25 C3.57589844 24.58637207 3.15179688 24.17274414 2.71484375 23.74658203 C0.80472667 21.87792079 -1.09768811 20.00160497 -3 18.125 C-3.66773438 17.47402344 -4.33546875 16.82304687 -5.0234375 16.15234375 C-5.65507812 15.52714844 -6.28671875 14.90195312 -6.9375 14.2578125 C-7.52402344 13.6817627 -8.11054688 13.10571289 -8.71484375 12.51220703 C-10 11 -10 11 -10 9 C-8.3203125 7.34375 -8.3203125 7.34375 -6.125 5.5 C-4.00964496 3.71066742 -1.95980876 1.95980876 0 0 Z " fill="#FFFFFF" transform="translate(282,320)"/>
</svg>
