<?xml version="1.0" encoding="UTF-8" standalone="no"?>
<!DOCTYPE svg PUBLIC "-//W3C//DTD SVG 1.1//EN"
 "http://www.w3.org/Graphics/SVG/1.1/DTD/svg11.dtd">
<!-- Generated by graphviz version 12.1.1 (20240910.0053)
 -->
<!-- Title: INFRA Pages: 1 -->
<svg width="481pt" height="188pt"
 viewBox="0.00 0.00 481.22 188.00" xmlns="http://www.w3.org/2000/svg" xmlns:xlink="http://www.w3.org/1999/xlink">
<g id="graph0" class="graph" transform="scale(1 1) rotate(0) translate(4 184)">
<title>INFRA</title>
<polygon fill="white" stroke="none" points="-4,4 -4,-184 477.22,-184 477.22,4 -4,4"/>
<!-- DatabaseManager -->
<g id="node1" class="node">
<title>DatabaseManager</title>
<path fill="#ffcfb3" stroke="black" stroke-width="2" d="M196.52,-65.45C196.52,-69.07 152.48,-72 98.26,-72 44.04,-72 0,-69.07 0,-65.45 0,-65.45 0,-6.55 0,-6.55 0,-2.93 44.04,0 98.26,0 152.48,0 196.52,-2.93 196.52,-6.55 196.52,-6.55 196.52,-65.45 196.52,-65.45"/>
<path fill="none" stroke="black" stroke-width="2" d="M196.52,-65.45C196.52,-61.84 152.48,-58.91 98.26,-58.91 44.04,-58.91 0,-61.84 0,-65.45"/>
<text text-anchor="middle" x="98.26" y="-40.2" font-family="Arial" font-size="14.00">DatabaseManager</text>
<text text-anchor="middle" x="98.26" y="-23.4" font-family="Arial" font-size="14.00">(Custom::DatabaseManager)</text>
</g>
<!-- FileService -->
<g id="node2" class="node">
<title>FileService</title>
<path fill="#e6e6e6" stroke="black" stroke-width="2" d="M353.55,-72C353.55,-72 226.97,-72 226.97,-72 220.97,-72 214.97,-66 214.97,-60 214.97,-60 214.97,-12 214.97,-12 214.97,-6 220.97,0 226.97,0 226.97,0 353.55,0 353.55,0 359.55,0 365.55,-6 365.55,-12 365.55,-12 365.55,-60 365.55,-60 365.55,-66 359.55,-72 353.55,-72"/>
<text text-anchor="middle" x="290.26" y="-40.2" font-family="Arial" font-size="14.00">FileService</text>
<text text-anchor="middle" x="290.26" y="-23.4" font-family="Arial" font-size="14.00">(Custom::FileService)</text>
</g>
<!-- CIPipeline -->
<g id="node3" class="node">
<title>CIPipeline</title>
<path fill="#e6e6e6" stroke="black" stroke-width="2" d="M461.22,-180C461.22,-180 297.3,-180 297.3,-180 291.3,-180 285.3,-174 285.3,-168 285.3,-168 285.3,-120 285.3,-120 285.3,-114 291.3,-108 297.3,-108 297.3,-108 461.22,-108 461.22,-108 467.22,-108 473.22,-114 473.22,-120 473.22,-120 473.22,-168 473.22,-168 473.22,-174 467.22,-180 461.22,-180"/>
<text text-anchor="middle" x="379.26" y="-148.2" font-family="Arial" font-size="14.00">CIPipeline</text>
<text text-anchor="middle" x="379.26" y="-131.4" font-family="Arial" font-size="14.00">(GitHub::Actions::Workflow)</text>
</g>
<!-- VSCodeExtension -->
<g id="node4" class="node">
<title>VSCodeExtension</title>
<path fill="#e6e6e6" stroke="black" stroke-width="2" d="M255.63,-180C255.63,-180 132.9,-180 132.9,-180 126.9,-180 120.9,-174 120.9,-168 120.9,-168 120.9,-120 120.9,-120 120.9,-114 126.9,-108 132.9,-108 132.9,-108 255.63,-108 255.63,-108 261.63,-108 267.63,-114 267.63,-120 267.63,-120 267.63,-168 267.63,-168 267.63,-174 261.63,-180 255.63,-180"/>
<text text-anchor="middle" x="194.26" y="-148.2" font-family="Arial" font-size="14.00">VSCodeExtension</text>
<text text-anchor="middle" x="194.26" y="-131.4" font-family="Arial" font-size="14.00">(VSCode::Extension)</text>
</g>
<!-- VSCodeExtension&#45;&gt;DatabaseManager -->
<g id="edge1" class="edge">
<title>VSCodeExtension&#45;&gt;DatabaseManager</title>
<path fill="none" stroke="black" d="M162.3,-107.7C154.44,-99.03 145.94,-89.65 137.78,-80.63"/>
<polygon fill="black" stroke="black" points="140.41,-78.33 131.1,-73.26 135.22,-83.03 140.41,-78.33"/>
</g>
<!-- VSCodeExtension&#45;&gt;FileService -->
<g id="edge2" class="edge">
<title>VSCodeExtension&#45;&gt;FileService</title>
<path fill="none" stroke="black" d="M226.23,-107.7C234.08,-99.03 242.58,-89.65 250.74,-80.63"/>
<polygon fill="black" stroke="black" points="253.3,-83.03 257.42,-73.26 248.11,-78.33 253.3,-83.03"/>
</g>
</g>
</svg>
